<mxfile host="app.diagrams.net" modified="2021-09-10T05:29:59.846Z" agent="5.0 (Windows NT 10.0; Win64; x64) AppleWebKit/537.36 (KHTML, like Gecko) Chrome/93.0.4577.63 Safari/537.36" etag="PzWuXYLHh4BsARj76M-n" version="15.1.4" type="github">
  <diagram id="4KAasOimT_g3E0OrbEtv" name="Page-1">
    <mxGraphModel dx="1209" dy="585" grid="1" gridSize="10" guides="1" tooltips="1" connect="1" arrows="1" fold="1" page="1" pageScale="1" pageWidth="850" pageHeight="1100" math="0" shadow="0">
      <root>
        <mxCell id="0" />
        <mxCell id="1" parent="0" />
        <mxCell id="XENrf5sejhpj63HIIuOI-10" value="" style="rounded=0;whiteSpace=wrap;html=1;dashed=1;" parent="1" vertex="1">
          <mxGeometry x="290" y="10" width="300" height="530" as="geometry" />
        </mxCell>
        <mxCell id="XENrf5sejhpj63HIIuOI-1" value="&lt;span style=&quot;color: rgb(51 , 51 , 51) ; font-family: &amp;#34;segoe ui&amp;#34; , &amp;#34;segoe wp&amp;#34; , &amp;#34;tahoma&amp;#34; , &amp;#34;arial&amp;#34; , sans-serif ; font-size: 17px ; text-align: left ; background-color: rgb(255 , 255 , 255)&quot;&gt;API gateway&lt;/span&gt;" style="rounded=0;whiteSpace=wrap;html=1;" parent="1" vertex="1">
          <mxGeometry x="100" y="160" width="80" height="270" as="geometry" />
        </mxCell>
        <mxCell id="XENrf5sejhpj63HIIuOI-11" value="Microservices" style="text;html=1;strokeColor=none;fillColor=none;align=center;verticalAlign=middle;whiteSpace=wrap;rounded=0;dashed=1;" parent="1" vertex="1">
          <mxGeometry x="320" y="20" width="40" height="20" as="geometry" />
        </mxCell>
        <mxCell id="XENrf5sejhpj63HIIuOI-12" value="" style="endArrow=classic;html=1;exitX=1;exitY=0.5;exitDx=0;exitDy=0;entryX=-0.046;entryY=0.604;entryDx=0;entryDy=0;entryPerimeter=0;" parent="1" source="XENrf5sejhpj63HIIuOI-1" edge="1">
          <mxGeometry width="50" height="50" relative="1" as="geometry">
            <mxPoint x="400" y="310" as="sourcePoint" />
            <mxPoint x="386.31999999999994" y="88.32000000000005" as="targetPoint" />
            <Array as="points" />
          </mxGeometry>
        </mxCell>
        <mxCell id="XENrf5sejhpj63HIIuOI-13" value="" style="endArrow=classic;html=1;exitX=1;exitY=0.5;exitDx=0;exitDy=0;entryX=0;entryY=0.5;entryDx=0;entryDy=0;" parent="1" source="XENrf5sejhpj63HIIuOI-1" edge="1">
          <mxGeometry width="50" height="50" relative="1" as="geometry">
            <mxPoint x="400" y="310" as="sourcePoint" />
            <mxPoint x="390" y="270" as="targetPoint" />
          </mxGeometry>
        </mxCell>
        <mxCell id="XENrf5sejhpj63HIIuOI-14" value="" style="endArrow=classic;html=1;exitX=1;exitY=0.5;exitDx=0;exitDy=0;entryX=0;entryY=0.5;entryDx=0;entryDy=0;" parent="1" source="XENrf5sejhpj63HIIuOI-1" edge="1">
          <mxGeometry width="50" height="50" relative="1" as="geometry">
            <mxPoint x="400" y="310" as="sourcePoint" />
            <mxPoint x="390" y="170" as="targetPoint" />
          </mxGeometry>
        </mxCell>
        <mxCell id="XENrf5sejhpj63HIIuOI-15" value="" style="endArrow=classic;html=1;exitX=1;exitY=0.5;exitDx=0;exitDy=0;entryX=0;entryY=0.5;entryDx=0;entryDy=0;" parent="1" source="XENrf5sejhpj63HIIuOI-1" edge="1">
          <mxGeometry width="50" height="50" relative="1" as="geometry">
            <mxPoint x="400" y="310" as="sourcePoint" />
            <mxPoint x="390" y="380" as="targetPoint" />
          </mxGeometry>
        </mxCell>
        <mxCell id="XENrf5sejhpj63HIIuOI-16" value="" style="endArrow=classic;html=1;exitX=1;exitY=0.5;exitDx=0;exitDy=0;entryX=0;entryY=0.5;entryDx=0;entryDy=0;" parent="1" source="XENrf5sejhpj63HIIuOI-1" edge="1">
          <mxGeometry width="50" height="50" relative="1" as="geometry">
            <mxPoint x="400" y="310" as="sourcePoint" />
            <mxPoint x="390" y="490" as="targetPoint" />
          </mxGeometry>
        </mxCell>
        <mxCell id="XENrf5sejhpj63HIIuOI-28" value="&lt;span style=&quot;color: rgb(51 , 51 , 51) ; font-family: &amp;#34;segoe ui&amp;#34; , &amp;#34;segoe wp&amp;#34; , &amp;#34;tahoma&amp;#34; , &amp;#34;arial&amp;#34; , sans-serif ; font-size: 17px ; text-align: left ; background-color: rgb(255 , 255 , 255)&quot;&gt;RabbitMQ &lt;/span&gt;" style="rounded=0;whiteSpace=wrap;html=1;fontSize=10;" parent="1" vertex="1">
          <mxGeometry x="670" y="60" width="80" height="110" as="geometry" />
        </mxCell>
        <mxCell id="XENrf5sejhpj63HIIuOI-35" value="Currency API" style="rounded=0;whiteSpace=wrap;html=1;fontSize=10;" parent="1" vertex="1">
          <mxGeometry x="390" y="50" width="180" height="60" as="geometry" />
        </mxCell>
        <mxCell id="XENrf5sejhpj63HIIuOI-36" value="" style="shape=hexagon;perimeter=hexagonPerimeter2;whiteSpace=wrap;html=1;fixedSize=1;fontSize=10;size=20;" parent="1" vertex="1">
          <mxGeometry x="390" y="60" width="50" height="40" as="geometry" />
        </mxCell>
        <mxCell id="XENrf5sejhpj63HIIuOI-37" value="" style="shape=cylinder3;whiteSpace=wrap;html=1;boundedLbl=1;backgroundOutline=1;size=15;fontSize=10;" parent="1" vertex="1">
          <mxGeometry x="530" y="60" width="30" height="40" as="geometry" />
        </mxCell>
        <mxCell id="XENrf5sejhpj63HIIuOI-41" value="&lt;span style=&quot;background-color: rgb(255 , 255 , 255) ; color: rgb(51 , 51 , 51) ; font-family: &amp;#34;segoe ui&amp;#34; , &amp;#34;segoe wp&amp;#34; , &amp;#34;tahoma&amp;#34; , &amp;#34;arial&amp;#34; , sans-serif&quot;&gt;&lt;br&gt;Payment API&lt;/span&gt;" style="rounded=0;whiteSpace=wrap;html=1;fontSize=10;" parent="1" vertex="1">
          <mxGeometry x="390" y="140" width="180" height="60" as="geometry" />
        </mxCell>
        <mxCell id="XENrf5sejhpj63HIIuOI-42" value="" style="shape=hexagon;perimeter=hexagonPerimeter2;whiteSpace=wrap;html=1;fixedSize=1;fontSize=10;size=20;" parent="1" vertex="1">
          <mxGeometry x="390" y="150" width="50" height="40" as="geometry" />
        </mxCell>
        <mxCell id="XENrf5sejhpj63HIIuOI-43" value="" style="shape=cylinder3;whiteSpace=wrap;html=1;boundedLbl=1;backgroundOutline=1;size=15;fontSize=10;" parent="1" vertex="1">
          <mxGeometry x="530" y="150" width="30" height="40" as="geometry" />
        </mxCell>
        <mxCell id="XENrf5sejhpj63HIIuOI-44" value="Venue API" style="rounded=0;whiteSpace=wrap;html=1;fontSize=10;" parent="1" vertex="1">
          <mxGeometry x="390" y="240" width="180" height="60" as="geometry" />
        </mxCell>
        <mxCell id="XENrf5sejhpj63HIIuOI-45" value="" style="shape=hexagon;perimeter=hexagonPerimeter2;whiteSpace=wrap;html=1;fixedSize=1;fontSize=10;size=20;" parent="1" vertex="1">
          <mxGeometry x="390" y="250" width="50" height="40" as="geometry" />
        </mxCell>
        <mxCell id="XENrf5sejhpj63HIIuOI-46" value="" style="shape=cylinder3;whiteSpace=wrap;html=1;boundedLbl=1;backgroundOutline=1;size=15;fontSize=10;" parent="1" vertex="1">
          <mxGeometry x="530" y="250" width="30" height="40" as="geometry" />
        </mxCell>
        <mxCell id="XENrf5sejhpj63HIIuOI-47" value="Booking API" style="rounded=0;whiteSpace=wrap;html=1;fontSize=10;" parent="1" vertex="1">
          <mxGeometry x="390" y="350" width="180" height="60" as="geometry" />
        </mxCell>
        <mxCell id="XENrf5sejhpj63HIIuOI-48" value="" style="shape=hexagon;perimeter=hexagonPerimeter2;whiteSpace=wrap;html=1;fixedSize=1;fontSize=10;size=20;" parent="1" vertex="1">
          <mxGeometry x="390" y="360" width="50" height="40" as="geometry" />
        </mxCell>
        <mxCell id="XENrf5sejhpj63HIIuOI-49" value="" style="shape=cylinder3;whiteSpace=wrap;html=1;boundedLbl=1;backgroundOutline=1;size=15;fontSize=10;" parent="1" vertex="1">
          <mxGeometry x="530" y="360" width="30" height="40" as="geometry" />
        </mxCell>
        <mxCell id="XENrf5sejhpj63HIIuOI-50" value="Login API" style="rounded=0;whiteSpace=wrap;html=1;fontSize=10;" parent="1" vertex="1">
          <mxGeometry x="390" y="460" width="180" height="60" as="geometry" />
        </mxCell>
        <mxCell id="XENrf5sejhpj63HIIuOI-51" value="" style="shape=hexagon;perimeter=hexagonPerimeter2;whiteSpace=wrap;html=1;fixedSize=1;fontSize=10;size=20;" parent="1" vertex="1">
          <mxGeometry x="390" y="470" width="50" height="40" as="geometry" />
        </mxCell>
        <mxCell id="XENrf5sejhpj63HIIuOI-52" value="" style="shape=cylinder3;whiteSpace=wrap;html=1;boundedLbl=1;backgroundOutline=1;size=15;fontSize=10;" parent="1" vertex="1">
          <mxGeometry x="530" y="470" width="30" height="40" as="geometry" />
        </mxCell>
        <mxCell id="XENrf5sejhpj63HIIuOI-53" value="" style="endArrow=classic;startArrow=classic;html=1;fontSize=10;entryX=0.004;entryY=0.597;entryDx=0;entryDy=0;entryPerimeter=0;" parent="1" target="XENrf5sejhpj63HIIuOI-28" edge="1">
          <mxGeometry width="50" height="50" relative="1" as="geometry">
            <mxPoint x="570" y="170" as="sourcePoint" />
            <mxPoint x="620" y="120" as="targetPoint" />
          </mxGeometry>
        </mxCell>
        <mxCell id="XENrf5sejhpj63HIIuOI-54" value="" style="endArrow=classic;startArrow=classic;html=1;fontSize=10;entryX=-0.012;entryY=0.615;entryDx=0;entryDy=0;entryPerimeter=0;" parent="1" target="XENrf5sejhpj63HIIuOI-28" edge="1">
          <mxGeometry width="50" height="50" relative="1" as="geometry">
            <mxPoint x="570" y="90" as="sourcePoint" />
            <mxPoint x="620" y="40" as="targetPoint" />
          </mxGeometry>
        </mxCell>
        <mxCell id="XENrf5sejhpj63HIIuOI-55" value="&lt;span style=&quot;color: rgb(51 , 51 , 51) ; font-family: &amp;#34;segoe ui&amp;#34; , &amp;#34;segoe wp&amp;#34; , &amp;#34;tahoma&amp;#34; , &amp;#34;arial&amp;#34; , sans-serif ; font-size: 17px ; text-align: left ; background-color: rgb(255 , 255 , 255)&quot;&gt;RabbitMQ &lt;/span&gt;" style="rounded=0;whiteSpace=wrap;html=1;fontSize=10;" parent="1" vertex="1">
          <mxGeometry x="670" y="260" width="80" height="110" as="geometry" />
        </mxCell>
        <mxCell id="XENrf5sejhpj63HIIuOI-56" value="" style="endArrow=classic;startArrow=classic;html=1;fontSize=10;entryX=0.004;entryY=0.597;entryDx=0;entryDy=0;entryPerimeter=0;" parent="1" target="XENrf5sejhpj63HIIuOI-55" edge="1">
          <mxGeometry width="50" height="50" relative="1" as="geometry">
            <mxPoint x="570" y="370" as="sourcePoint" />
            <mxPoint x="620" y="320" as="targetPoint" />
          </mxGeometry>
        </mxCell>
        <mxCell id="XENrf5sejhpj63HIIuOI-57" value="" style="endArrow=classic;startArrow=classic;html=1;fontSize=10;entryX=-0.012;entryY=0.615;entryDx=0;entryDy=0;entryPerimeter=0;" parent="1" target="XENrf5sejhpj63HIIuOI-55" edge="1">
          <mxGeometry width="50" height="50" relative="1" as="geometry">
            <mxPoint x="570" y="290" as="sourcePoint" />
            <mxPoint x="620" y="240" as="targetPoint" />
          </mxGeometry>
        </mxCell>
      </root>
    </mxGraphModel>
  </diagram>
</mxfile>
